<?xml version="1.0" encoding="utf-8"?>
<!-- Generator: Adobe Illustrator 16.0.0, SVG Export Plug-In . SVG Version: 6.00 Build 0)  -->
<!DOCTYPE svg PUBLIC "-//W3C//DTD SVG 1.1//EN" "http://www.w3.org/Graphics/SVG/1.1/DTD/svg11.dtd" [
	<!ENTITY ns_extend "http://ns.adobe.com/Extensibility/1.0/">
	<!ENTITY ns_ai "http://ns.adobe.com/AdobeIllustrator/10.0/">
	<!ENTITY ns_graphs "http://ns.adobe.com/Graphs/1.0/">
	<!ENTITY ns_vars "http://ns.adobe.com/Variables/1.0/">
	<!ENTITY ns_imrep "http://ns.adobe.com/ImageReplacement/1.0/">
	<!ENTITY ns_sfw "http://ns.adobe.com/SaveForWeb/1.0/">
	<!ENTITY ns_custom "http://ns.adobe.com/GenericCustomNamespace/1.0/">
	<!ENTITY ns_adobe_xpath "http://ns.adobe.com/XPath/1.0/">
]>
<svg version="1.1" id="Layer_1" xmlns:x="&ns_extend;" xmlns:i="&ns_ai;" xmlns:graph="&ns_graphs;"
	 xmlns="http://www.w3.org/2000/svg" xmlns:xlink="http://www.w3.org/1999/xlink" x="0px" y="0px" width="99.212px"
	 height="107.716px" viewBox="0 0 99.212 107.716" enable-background="new 0 0 99.212 107.716" xml:space="preserve">
<metadata>
	<sfw  xmlns="&ns_sfw;">
		<slices></slices>
		<sliceSourceBounds  height="792" width="612" x="-207.882" y="-549.994" bottomLeftOrigin="true"></sliceSourceBounds>
	</sfw>
</metadata>
<g>
	<g>
		<path fill="#00AAC8" d="M65.576,13.545c4.932,0.083,9.33,0.575,13.196,1.477c3.864,0.904,7.193,2.668,9.99,5.293
			c5.344,5.089,8.263,11.817,8.758,20.188c0,0.246,0.019,0.514,0.062,0.8c0.04,0.289,0.062,0.597,0.062,0.923v1.108
			c0,5.582-0.987,10.463-2.961,14.649c-1.315,3.037-3.289,5.828-5.92,8.371c-2.797,2.627-6.126,4.391-9.99,5.293
			c-3.866,0.904-8.265,1.396-13.196,1.477h-7.647c-1.646,0-3.045,0.576-4.195,1.725c-1.15,1.149-1.726,2.504-1.726,4.062V68.57
			c0-1.641,0.573-3.016,1.722-4.123c1.146-1.107,2.541-1.662,4.182-1.662h7.624c2.785-0.08,5.368-0.431,7.746-1.047
			c2.377-0.615,4.468-1.661,6.272-3.139c1.804-1.477,3.218-3.426,4.243-5.847c1.022-2.419,1.536-5.559,1.536-9.417
			c0-3.773-0.514-6.894-1.538-9.355c-1.027-2.462-2.443-4.432-4.247-5.909c-1.807-1.477-3.899-2.502-6.278-3.078
			c-2.381-0.573-4.967-0.942-7.755-1.108c-2.709,0.166-5.274,0.596-7.694,1.292c-2.422,0.698-4.514,1.828-6.278,3.385
			c-1.766,1.56-3.16,3.612-4.185,6.155c-1.027,2.544-1.539,5.745-1.539,9.602V99.96c0,1.643,0.556,3.037,1.672,4.186
			c1.113,1.15,2.496,1.724,4.148,1.724H27.845c1.641,0,3.016-0.573,4.124-1.724c1.108-1.148,1.662-2.543,1.662-4.186V44.32
			c0-9.765,2.918-17.48,8.757-23.143c2.878-2.625,6.229-4.512,10.052-5.663C56.264,14.366,60.642,13.71,65.576,13.545z"/>
	</g>
	<g>
		<path fill="#F04923" d="M38.863,2.22c4.932,0.083,9.33,0.575,13.197,1.477c3.863,0.904,7.193,2.668,9.99,5.293
			c5.344,5.089,8.262,11.817,8.758,20.188c0,0.246,0.018,0.514,0.061,0.8c0.041,0.289,0.063,0.597,0.063,0.923v1.108
			c0,5.582-0.988,10.463-2.961,14.649c-1.316,3.037-3.289,5.828-5.92,8.37c-2.797,2.628-6.127,4.393-9.99,5.294
			c-3.867,0.903-8.266,1.396-13.197,1.478h-7.647c-1.646,0-3.045,0.574-4.195,1.723c-1.15,1.15-1.726,2.505-1.726,4.063v-10.34
			c0-1.641,0.573-3.016,1.722-4.124c1.146-1.108,2.541-1.662,4.182-1.662h7.624c2.785-0.081,5.369-0.431,7.746-1.046
			c2.377-0.615,4.469-1.662,6.273-3.139c1.803-1.478,3.217-3.426,4.242-5.848c1.023-2.419,1.537-5.559,1.537-9.417
			c0-3.773-0.514-6.894-1.539-9.355c-1.027-2.462-2.443-4.432-4.246-5.909c-1.807-1.477-3.9-2.502-6.279-3.078
			c-2.381-0.573-4.967-0.942-7.754-1.108c-2.709,0.166-5.275,0.596-7.695,1.292c-2.421,0.698-4.514,1.828-6.278,3.385
			c-1.766,1.56-3.16,3.612-4.186,6.155c-1.027,2.544-1.539,5.745-1.539,9.602v55.642c0,1.643,0.556,3.037,1.671,4.185
			c1.114,1.15,2.497,1.724,4.149,1.724H1.133c1.641,0,3.016-0.573,4.124-1.724c1.108-1.147,1.662-2.542,1.662-4.185V32.995
			c0-9.765,2.918-17.48,8.757-23.143c2.877-2.625,6.228-4.512,10.052-5.663C29.552,3.041,33.929,2.385,38.863,2.22z"/>
	</g>
	<g>
		<defs>
			<rect id="SVGID_1_" x="-267.846" y="-273.188" width="612" height="792"/>
		</defs>
		<clipPath id="SVGID_2_">
			<use xlink:href="#SVGID_1_"  overflow="visible"/>
		</clipPath>
		<rect x="33.623" y="47.274" clip-path="url(#SVGID_2_)" fill="#00AAC8" width="12.139" height="31.438"/>
	</g>
</g>
</svg>
