<?xml version="1.0" encoding="utf-8"?>
<!-- Generator: Adobe Illustrator 16.0.0, SVG Export Plug-In . SVG Version: 6.00 Build 0)  -->
<!DOCTYPE svg PUBLIC "-//W3C//DTD SVG 1.1//EN" "http://www.w3.org/Graphics/SVG/1.1/DTD/svg11.dtd">
<svg version="1.1" id="Layer_1" xmlns="http://www.w3.org/2000/svg" xmlns:xlink="http://www.w3.org/1999/xlink" x="0px" y="0px"
	 width="520px" height="110.044px" viewBox="0 0 520 110.044" enable-background="new 0 0 520 110.044" xml:space="preserve">
<path fill="#F3A648" d="M520,9.889c0,4.914-3.981,8.894-8.895,8.894c-4.912,0-8.896-3.98-8.896-8.894
	c0-4.913,3.983-8.897,8.896-8.897C516.019,0.992,520,4.976,520,9.889"/>
<path fill="#FDC63B" d="M511.105,16.86c-3.845,0-6.972-3.127-6.972-6.97c0-3.846,3.127-6.973,6.972-6.973
	c3.846,0,6.972,3.126,6.972,6.973C518.077,13.732,514.951,16.86,511.105,16.86"/>
<path fill="#F3A648" d="M512.246,5.883c0,0.629-0.511,1.139-1.141,1.139c-0.629,0-1.138-0.51-1.138-1.139
	c0-0.628,0.509-1.138,1.138-1.138C511.735,4.745,512.246,5.255,512.246,5.883"/>
<path fill="#F3A648" d="M508.172,6.917c0.545,0.318,0.733,1.014,0.42,1.557c-0.316,0.544-1.013,0.733-1.557,0.418
	c-0.544-0.313-0.732-1.012-0.417-1.557C506.932,6.792,507.628,6.603,508.172,6.917"/>
<path fill="#F3A648" d="M507.032,10.964c0.547-0.315,1.245-0.13,1.557,0.415c0.313,0.544,0.128,1.241-0.417,1.556
	c-0.544,0.315-1.241,0.131-1.556-0.418C506.303,11.975,506.491,11.277,507.032,10.964"/>
<path fill="#F3A648" d="M509.974,13.903c0-0.627,0.508-1.134,1.13-1.132c0.626-0.002,1.134,0.505,1.134,1.128
	c0,0.624-0.507,1.132-1.132,1.129C510.481,15.028,509.974,14.522,509.974,13.903"/>
<path fill="#F3A648" d="M514.039,12.937c-0.546-0.317-0.733-1.015-0.419-1.557c0.315-0.546,1.013-0.731,1.559-0.417
	c0.543,0.313,0.732,1.013,0.416,1.557C515.281,13.062,514.581,13.249,514.039,12.937"/>
<path fill="#F3A648" d="M515.179,8.892c-0.546,0.313-1.242,0.129-1.556-0.416c-0.317-0.543-0.13-1.241,0.416-1.56
	c0.542-0.312,1.242-0.124,1.556,0.418C515.908,7.88,515.722,8.578,515.179,8.892"/>
<g>
	<g>
		<defs>
			<rect id="SVGID_1_" x="502.464" y="9.849" width="9.894" height="7.447"/>
		</defs>
		<clipPath id="SVGID_2_">
			<use xlink:href="#SVGID_1_"  overflow="visible"/>
		</clipPath>
		<path clip-path="url(#SVGID_2_)" fill="#CECECE" d="M502.464,11.964c0.53,2.212,1.882,4.106,3.722,5.332l6.172-7.407
			c0,0-0.38-0.09-1.252,0C508.424,11.282,505.646,11.952,502.464,11.964"/>
	</g>
</g>
<polygon fill="#D8D9D8" points="467.88,9.889 489.494,35.835 489.494,9.889 "/>
<polygon fill="#C7C6C5" points="489.494,9.889 489.494,35.835 511.105,9.889 "/>
<rect x="477.556" y="-3.378" transform="matrix(-0.7952 0.6064 -0.6064 -0.7952 868.8744 -261.2416)" fill="#F3A648" width="2.004" height="39.002"/>
<polygon fill="#66C3DC" points="504.007,16.155 474.978,16.155 489.494,33.58 "/>
<polygon fill="#138994" points="489.575,32.246 491.169,31.03 479.843,16.155 477.324,16.155 "/>
<polygon fill="#138994" points="474.978,16.155 474.144,15.028 504.909,15.028 504.007,16.155 "/>
<path fill="#EF4923" d="M30.377,10.939c3.97,0.066,7.511,0.462,10.624,1.188c3.112,0.729,5.792,2.148,8.043,4.262
	c4.301,4.098,6.652,9.514,7.05,16.253c0,0.198,0.016,0.413,0.05,0.645c0.032,0.232,0.05,0.48,0.05,0.742v0.892
	c0,4.494-0.795,8.425-2.383,11.794c-1.059,2.445-2.648,4.691-4.767,6.739C46.792,55.57,44.112,56.99,41,57.717
	c-3.112,0.728-6.654,1.124-10.624,1.188h-6.158c-1.325,0-2.452,0.463-3.377,1.389c-0.925,0.925-1.389,2.016-1.389,3.269v-8.324
	c0-1.32,0.461-2.428,1.386-3.32c0.924-0.892,2.046-1.337,3.366-1.337h6.138c2.244-0.065,4.323-0.348,6.237-0.843
	c1.913-0.495,3.597-1.337,5.049-2.527c1.453-1.19,2.591-2.757,3.417-4.708c0.824-1.948,1.237-4.475,1.237-7.582
	c0-3.038-0.414-5.548-1.239-7.532c-0.827-1.982-1.966-3.567-3.42-4.757c-1.453-1.189-3.138-2.015-5.054-2.478
	c-1.917-0.461-3.999-0.759-6.244-0.892c-2.18,0.133-4.247,0.479-6.193,1.04c-1.95,0.563-3.635,1.472-5.055,2.726
	c-1.422,1.256-2.544,2.908-3.369,4.955c-0.828,2.049-1.239,4.625-1.239,7.73v44.796c0,1.322,0.448,2.445,1.347,3.37
	c0.896,0.926,2.009,1.387,3.339,1.387H0c1.322,0,2.429-0.461,3.321-1.387c0.892-0.925,1.338-2.048,1.338-3.37V35.715
	c0-7.861,2.348-14.073,7.05-18.631c2.316-2.114,5.014-3.633,8.092-4.56C22.88,11.6,26.405,11.072,30.377,10.939"/>
<path fill="#EF4923" d="M112.583,85.268h-9.664c-1.334,0-2.453-0.444-3.355-1.337c-0.9-0.893-1.351-1.998-1.351-3.321V48.401
	c0-1.254-0.431-2.329-1.29-3.221s-1.949-1.337-3.271-1.337h-5.946c-2.18,0.133-4.212,0.462-6.094,0.989
	c-1.883,0.527-3.536,1.399-4.956,2.618c-1.42,1.218-2.527,2.832-3.319,4.841c-0.793,2.011-1.189,4.531-1.189,7.558v1.087
	c0,3.033,0.396,5.551,1.192,7.561c0.795,2.01,1.906,3.624,3.331,4.841c1.425,1.219,3.082,2.108,4.971,2.668
	c1.89,0.561,3.928,0.874,6.116,0.939h1.093c1.325,0,2.418-0.43,3.28-1.288c0.86-0.858,1.292-1.948,1.292-3.272v8.172
	c0,1.338-0.43,2.457-1.291,3.359c-0.861,0.903-1.954,1.354-3.276,1.354h-1.193c-3.839-0.131-7.283-0.66-10.33-1.586
	c-3.045-0.925-5.661-2.442-7.845-4.558c-4.636-4.427-6.954-10.473-6.954-18.138v-1.09c0-7.663,2.317-13.709,6.954-18.136
	c2.184-2.115,4.8-3.618,7.845-4.51c3.046-0.892,6.491-1.404,10.33-1.536h8.245c1.655,0,3.227,0.313,4.717,0.941
	c1.49,0.628,2.782,1.486,3.875,2.577c1.091,1.09,1.952,2.379,2.581,3.866c0.629,1.485,0.945,3.056,0.945,4.707V80.61
	c0,1.323,0.447,2.429,1.339,3.321C110.253,84.824,111.328,85.268,112.583,85.268"/>
<path fill="#EF4923" d="M130.592,41.463c1.734-1.65,3.742-2.94,6.022-3.865c2.278-0.925,4.84-1.552,7.682-1.883
	c1.32,0,2.429,0.447,3.319,1.338c0.892,0.892,1.338,1.967,1.338,3.221v3.271c-2.18,0.133-4.229,0.479-6.144,1.04
	c-1.917,0.563-3.584,1.471-5.005,2.726c-1.421,1.256-2.528,2.891-3.32,4.906c-0.792,2.016-1.188,4.544-1.188,7.581V80.61
	c0,1.322-0.452,2.429-1.353,3.32c-0.901,0.893-2.019,1.337-3.354,1.337h-9.665c1.254,0,2.328-0.444,3.22-1.337
	c0.893-0.892,1.338-1.998,1.338-3.32V59.797C123.484,52.067,125.854,45.957,130.592,41.463"/>
<path fill="#EF4923" d="M188.299,77.241v3.369c0,1.322-0.446,2.429-1.337,3.32c-0.893,0.893-2,1.339-3.32,1.339h-0.496h-0.199
	c-2.774-0.396-5.269-1.058-7.482-1.982c-2.212-0.925-4.168-2.213-5.87-3.865c-4.711-4.559-7.064-10.803-7.064-18.731V44.635h-2.477
	c-1.323,0-2.446-0.462-3.37-1.388c-0.926-0.924-1.387-2.046-1.387-3.37v-4.162h7.234v-20.02c0-1.32,0.457-2.444,1.374-3.37
	c0.915-0.925,2.027-1.386,3.335-1.386h5.104v24.776h6.442c1.32,0,2.443,0.463,3.368,1.388c0.926,0.926,1.389,2.049,1.389,3.369
	v8.821c0-1.321-0.462-2.428-1.389-3.32c-0.925-0.892-2.048-1.338-3.368-1.338h-6.442V60.69c0,4.692,0.892,8.243,2.675,10.652
	c1.785,2.415,4.128,4.05,7.037,4.907c1.453,0.464,3.006,0.761,4.658,0.892c0.331,0.067,0.61,0.1,0.842,0.1H188.299z"/>
<path fill="#EF4923" d="M250.041,35.715c-2.048,0-3.503,0.926-4.361,2.775c-1.321,2.775-2.494,5.27-3.518,7.483
	c-1.024,2.213-2.196,4.757-3.516,7.631c-1.324,2.874-2.676,5.799-4.064,8.771c-3.239,7.002-6.938,14.964-11.1,23.885l-9.019,21.009
	c-0.859,1.849-2.346,2.775-4.459,2.775h-11.298c2.113,0,3.6-0.927,4.459-2.775l8.82-20.711c0.461-0.86,0.528-1.75,0.2-2.677
	l-12.587-44.4c0-0.065-0.017-0.099-0.049-0.099c-0.035,0-0.05-0.032-0.05-0.099c-0.264-1.056-0.827-1.916-1.685-2.577
	c-0.86-0.66-1.85-0.991-2.974-0.991h10.604c1.124,0,2.115,0.348,2.973,1.04c0.858,0.694,1.453,1.571,1.784,2.627l0.099,0.595
	l6.839,26.461c0.263,1.124,0.941,1.72,2.031,1.784c1.09,0.066,1.866-0.396,2.328-1.388l12.389-27.254l0.497-1.09
	c0.855-1.849,2.311-2.775,4.358-2.775h8.127H250.041z"/>
<path fill="#00A9C7" d="M286.857,10.939c3.971,0.066,7.513,0.462,10.625,1.188c3.11,0.729,5.791,2.148,8.042,4.262
	c4.303,4.098,6.652,9.514,7.051,16.253c0,0.198,0.016,0.413,0.05,0.645c0.033,0.232,0.05,0.48,0.05,0.742v0.892
	c0,4.494-0.794,8.425-2.384,11.794c-1.06,2.445-2.647,4.691-4.767,6.739c-2.251,2.115-4.932,3.534-8.042,4.262
	c-3.112,0.728-6.654,1.124-10.625,1.188H280.7c-1.325,0-2.451,0.463-3.378,1.389c-0.926,0.925-1.389,2.016-1.389,3.269v-8.324
	c0-1.32,0.462-2.428,1.386-3.32c0.923-0.892,2.047-1.337,3.367-1.337h6.138c2.243-0.065,4.322-0.348,6.236-0.843
	c1.915-0.495,3.599-1.337,5.05-2.527c1.452-1.19,2.591-2.757,3.417-4.708c0.823-1.948,1.236-4.475,1.236-7.582
	c0-3.038-0.413-5.548-1.238-7.532c-0.827-1.982-1.966-3.567-3.42-4.757c-1.453-1.189-3.139-2.015-5.056-2.478
	c-1.915-0.461-3.996-0.759-6.242-0.892c-2.182,0.133-4.245,0.479-6.193,1.04c-1.951,0.563-3.635,1.472-5.055,2.726
	c-1.422,1.256-2.545,2.908-3.37,4.955c-0.828,2.049-1.238,4.625-1.238,7.73v44.796c0,1.322,0.447,2.445,1.345,3.37
	c0.896,0.926,2.011,1.387,3.342,1.387h-19.156c1.32,0,2.427-0.461,3.32-1.387c0.892-0.925,1.338-2.048,1.338-3.37V35.715
	c0-7.861,2.349-14.073,7.051-18.631c2.315-2.114,5.013-3.633,8.092-4.56C279.361,11.6,282.886,11.072,286.857,10.939"/>
<path fill="#00A9C7" d="M369.065,85.268H359.4c-1.335,0-2.451-0.444-3.354-1.337c-0.901-0.893-1.353-1.998-1.353-3.321V48.401
	c0-1.254-0.431-2.329-1.288-3.221c-0.86-0.892-1.95-1.337-3.271-1.337h-5.947c-2.18,0.133-4.212,0.462-6.095,0.989
	c-1.883,0.527-3.535,1.399-4.954,2.618c-1.423,1.218-2.528,2.832-3.321,4.841c-0.793,2.011-1.188,4.531-1.188,7.558v1.087
	c0,3.033,0.396,5.551,1.191,7.561c0.797,2.01,1.907,3.624,3.331,4.841c1.424,1.219,3.082,2.108,4.971,2.668
	c1.889,0.561,3.927,0.874,6.115,0.939h1.094c1.325,0,2.419-0.43,3.279-1.288c0.861-0.858,1.293-1.948,1.293-3.272v8.172
	c0,1.338-0.431,2.457-1.291,3.359c-0.861,0.903-1.955,1.354-3.276,1.354h-1.194c-3.839-0.131-7.283-0.66-10.329-1.586
	c-3.046-0.925-5.661-2.442-7.844-4.558c-4.638-4.427-6.953-10.473-6.953-18.138v-1.09c0-7.663,2.315-13.709,6.953-18.136
	c2.183-2.115,4.798-3.618,7.844-4.51c3.046-0.892,6.49-1.404,10.329-1.536h8.245c1.654,0,3.229,0.313,4.717,0.941
	c1.49,0.628,2.781,1.486,3.875,2.577c1.092,1.09,1.953,2.379,2.582,3.866c0.628,1.485,0.943,3.056,0.943,4.707V80.61
	c0,1.323,0.446,2.429,1.338,3.321C366.735,84.824,367.808,85.268,369.065,85.268"/>
<path fill="#00A9C7" d="M420.896,85.268h-9.812c-1.322,0-2.428-0.444-3.32-1.337c-0.892-0.893-1.338-1.998-1.338-3.321
	c0-3.038-0.416-5.582-1.247-7.631c-0.832-2.047-1.979-3.699-3.44-4.956c-1.462-1.254-3.157-2.162-5.085-2.725
	c-1.928-0.561-4.021-0.906-6.283-1.039h-0.494V80.61c0,1.323-0.459,2.429-1.375,3.321s-2.027,1.337-3.335,1.337h-9.761
	c1.322,0,2.429-0.444,3.321-1.337c0.892-0.893,1.337-1.998,1.337-3.321V15.696c0-1.321,0.441-2.427,1.324-3.319
	c0.883-0.893,1.979-1.371,3.287-1.438h5.201v44.796h0.494c2.262-0.132,4.355-0.43,6.283-0.892c1.928-0.461,3.623-1.254,5.085-2.378
	c1.462-1.123,2.608-2.642,3.44-4.559c0.831-1.916,1.247-4.426,1.247-7.532c0-1.321,0.446-2.428,1.338-3.32
	c0.893-0.892,1.998-1.337,3.32-1.337h5.153v4.559c0,3.964-0.595,7.318-1.783,10.059c-1.189,2.742-2.974,5.236-5.353,7.482
	c-0.859,0.729-1.784,1.454-2.774,2.18c0.528,0.332,1.006,0.68,1.437,1.041c0.429,0.364,0.876,0.743,1.338,1.141
	c4.624,4.426,7.003,10.538,7.136,18.334v0.296c0.065,1.257,0.527,2.315,1.387,3.173C418.483,84.84,419.572,85.268,420.896,85.268"/>
<path fill="#00A9C7" d="M472.826,85.268h-9.812c-1.321,0-2.427-0.444-3.319-1.337c-0.892-0.893-1.338-1.998-1.338-3.321
	c0-3.038-0.416-5.582-1.247-7.631c-0.832-2.047-1.979-3.699-3.44-4.956c-1.462-1.254-3.157-2.162-5.085-2.725
	c-1.928-0.561-4.022-0.906-6.283-1.039h-0.495V80.61c0,1.323-0.458,2.429-1.374,3.321s-2.028,1.337-3.335,1.337h-9.76
	c1.32,0,2.427-0.444,3.319-1.337c0.892-0.893,1.339-1.998,1.339-3.321V15.696c0-1.321,0.439-2.427,1.322-3.319
	c0.884-0.893,1.979-1.371,3.288-1.438h5.2v44.796h0.495c2.261-0.132,4.355-0.43,6.283-0.892c1.928-0.461,3.623-1.254,5.085-2.378
	c1.462-1.123,2.608-2.642,3.44-4.559c0.831-1.916,1.247-4.426,1.247-7.532c0-1.321,0.446-2.428,1.338-3.32
	c0.893-0.892,1.998-1.337,3.319-1.337h5.153v4.559c0,3.964-0.595,7.318-1.783,10.059c-1.188,2.742-2.973,5.236-5.353,7.482
	c-0.857,0.729-1.783,1.454-2.774,2.18c0.528,0.332,1.007,0.68,1.438,1.041c0.429,0.364,0.875,0.743,1.337,1.141
	c4.624,4.426,7.004,10.538,7.136,18.334v0.296c0.066,1.257,0.528,2.315,1.388,3.173C470.414,84.84,471.505,85.268,472.826,85.268"/>
<path fill="#00A9C7" d="M498.692,35.715c-1.123,0-2.197,0.365-3.22,1.09c-1.025,0.728-1.537,1.719-1.537,2.973v40.534
	c0,1.256-0.363,2.395-1.091,3.419c-0.728,1.025-1.719,1.535-2.972,1.535h-10.604c1.65,0,2.874-0.51,3.667-1.535
	c0.794-1.024,1.189-2.163,1.189-3.419V39.779c0-1.254,0.511-2.246,1.536-2.973c1.023-0.726,2.162-1.09,3.419-1.09H498.692z"/>
</svg>
